# xmcd CD database file
#
# Track frame offsets:
#	150
#	11440
#	26165
#	41120
#	55160
#	65303
#	83527
#	95203
#	112038
#	125953
#	139347
#
# Disc length: 2091 seconds
#
# Revision: 0
# Processed by: cddbd v1.5.1PL0 Copyright (c) Steve Scherf et al.
# Submitted via: CDex 1.51
#
DISCID=9d08290b
DTITLE=Trevor V Stevens  - Keepper Of The Stars
DYEAR=2005
DGENRE=Country
TTITLE0=Trevor V Stevens - Sold
TTITLE1=Trevor V Stevens - I'm From The Country
TTITLE2=Trevor V Stevens - Carried Away
TTITLE3=Trevor V Stevens - Woman Sensuous Woman
TTITLE4=Trevor V Stevens - Honk If You Honky-Tonk
TTITLE5=Trevor V Stevens - Keeper Of The Stars
TTITLE6=Trevor V Stevens - Amarillo By Morning
TTITLE7=Trevor V Stevens - Prop Me Up By The Jukebox
TTITLE8=Trevor V Stevens - Better Than It Used To Be
TTITLE9=Trevor V Stevens - T.R.O.U.B.L.E.
TTITLE10=Trevor V Stevens - Country Girl
EXTD=YEAR: 2005
EXTT0=
EXTT1=
EXTT2=
EXTT3=
EXTT4=
EXTT5=
EXTT6=
EXTT7=
EXTT8=
EXTT9=
EXTT10=
PLAYORDER=
